HIERARCHY
ROOT Hip
{
	OFFSET -0.877885 -0.166031 -0.018497
	CHANNELS 6 Xposition Yposition Zposition Xrotation Yrotation Zrotation
	JOINT LowerSpine
	{
		OFFSET 0.047024 0.119542 0.273792
		CHANNELS 6 Xposition Yposition Zposition Xrotation Yrotation Zrotation
		JOINT MiddleSpine
		{
			OFFSET -0.021171 -0.028267 0.234775
			CHANNELS 3 Xrotation Yrotation Zrotation
			JOINT Chest
			{
				OFFSET 0.004342 0.030479 0.297691
				CHANNELS 3 Xrotation Yrotation Zrotation
				JOINT Neck
				{
					OFFSET -0.040742 -0.039617 0.658949
					CHANNELS 6 Xposition Yposition Zposition Xrotation Yrotation Zrotation
					JOINT Head
					{
						OFFSET -0.068684 -0.120269 0.361369
						CHANNELS 3 Xrotation Yrotation Zrotation
						End Site
						{
							OFFSET -0.004400 -0.005562 0.053182
						}
					}
				}
				JOINT LClavicle
				{
					OFFSET -0.072781 -0.252006 0.617077
					CHANNELS 6 Xposition Yposition Zposition Xrotation Yrotation Zrotation
					JOINT LShoulder
					{
						OFFSET 0.373468 -0.022766 0.116363
						CHANNELS 3 Xrotation Yrotation Zrotation
						JOINT LForearm
						{
							OFFSET 0.752627 -0.345688 0.022939
							CHANNELS 3 Xrotation Yrotation Zrotation
							JOINT LHand
							{
								OFFSET 0.626762 -0.290385 0.023384
								CHANNELS 3 Xrotation Yrotation Zrotation
								JOINT LFinger1
								{
									OFFSET 0.209365 -0.182822 0.024066
									CHANNELS 6 Xposition Yposition Zposition Xrotation Yrotation Zrotation
									JOINT LFinger11
									{
										OFFSET 0.084900 -0.056660 -0.023008
										CHANNELS 3 Xrotation Yrotation Zrotation
										JOINT LFinger12
										{
											OFFSET 0.057958 -0.038684 -0.015710
											CHANNELS 3 Xrotation Yrotation Zrotation
											End Site
											{
												OFFSET 0.043537 -0.027874 -0.014356
											}
										}
									}
								}
								JOINT LFinger2
								{
									OFFSET 0.241306 -0.123551 0.034519
									CHANNELS 6 Xposition Yposition Zposition Xrotation Yrotation Zrotation
									JOINT LFinger21
									{
										OFFSET 0.112342 -0.052060 0.004175
										CHANNELS 3 Xrotation Yrotation Zrotation
										JOINT LFinger22
										{
											OFFSET 0.062275 -0.028848 0.002335
											CHANNELS 3 Xrotation Yrotation Zrotation
											End Site
											{
												OFFSET 0.048642 -0.022539 -0.002142
											}
										}
									}
								}
								JOINT LFinger3
								{
									OFFSET 0.257442 -0.056004 0.031813
									CHANNELS 6 Xposition Yposition Zposition Xrotation Yrotation Zrotation
									JOINT LFinger31
									{
										OFFSET 0.105039 -0.041029 -0.001552
										CHANNELS 3 Xrotation Yrotation Zrotation
										JOINT LFinger32
										{
											OFFSET 0.059859 -0.023370 -0.000863
											CHANNELS 3 Xrotation Yrotation Zrotation
											End Site
											{
												OFFSET 0.049627 -0.019855 -0.004641
											}
										}
									}
								}
								JOINT LFinger4
								{
									OFFSET 0.261814 -0.005368 -0.000392
									CHANNELS 6 Xposition Yposition Zposition Xrotation Yrotation Zrotation
									JOINT LFinger41
									{
										OFFSET 0.071577 -0.011090 -0.010354
										CHANNELS 3 Xrotation Yrotation Zrotation
										JOINT LFinger42
										{
											OFFSET 0.052490 -0.008126 -0.007576
											CHANNELS 3 Xrotation Yrotation Zrotation
											End Site
											{
												OFFSET 0.051532 -0.009967 -0.011122
											}
										}
									}
								}
								JOINT LFinger0
								{
									OFFSET 0.035362 -0.058230 -0.044193
									CHANNELS 6 Xposition Yposition Zposition Xrotation Yrotation Zrotation
									JOINT LFinger01
									{
										OFFSET 0.062949 -0.111423 -0.038267
										CHANNELS 3 Xrotation Yrotation Zrotation
										JOINT LFinger02
										{
											OFFSET 0.042546 -0.071164 -0.026962
											CHANNELS 3 Xrotation Yrotation Zrotation
											End Site
											{
												OFFSET 0.027270 -0.043282 -0.016175
											}
										}
									}
								}
							}
						}
					}
				}
				JOINT RClavicle
				{
					OFFSET -0.181478 -0.200894 0.613430
					CHANNELS 6 Xposition Yposition Zposition Xrotation Yrotation Zrotation
					JOINT RShoulder
					{
						OFFSET -0.261607 0.275888 0.095069
						CHANNELS 3 Xrotation Yrotation Zrotation
						JOINT RForearm
						{
							OFFSET -0.746178 0.359087 -0.027360
							CHANNELS 3 Xrotation Yrotation Zrotation
							JOINT RHand
							{
								OFFSET -0.623556 0.297545 -0.018575
								CHANNELS 3 Xrotation Yrotation Zrotation
								JOINT RFinger1
								{
									OFFSET -0.275225 0.045044 0.007806
									CHANNELS 6 Xposition Yposition Zposition Xrotation Yrotation Zrotation
									JOINT RFinger11
									{
										OFFSET -0.096358 0.028572 -0.029091
										CHANNELS 3 Xrotation Yrotation Zrotation
										JOINT RFinger12
										{
											OFFSET -0.065783 0.019502 -0.019868
											CHANNELS 3 Xrotation Yrotation Zrotation
											End Site
											{
												OFFSET -0.048364 0.015340 -0.017440
											}
										}
									}
								}
								JOINT RFinger2
								{
									OFFSET -0.250516 0.107713 0.018014
									CHANNELS 6 Xposition Yposition Zposition Xrotation Yrotation Zrotation
									JOINT RFinger21
									{
										OFFSET -0.111775 0.053325 -0.003343
										CHANNELS 3 Xrotation Yrotation Zrotation
										JOINT RFinger22
										{
											OFFSET -0.061952 0.029570 -0.001834
											CHANNELS 3 Xrotation Yrotation Zrotation
											End Site
											{
												OFFSET -0.048178 0.022988 -0.005392
											}
										}
									}
								}
								JOINT RFinger3
								{
									OFFSET -0.208661 0.163169 0.016174
									CHANNELS 6 Xposition Yposition Zposition Xrotation Yrotation Zrotation
									JOINT RFinger31
									{
										OFFSET -0.098325 0.054598 -0.008378
										CHANNELS 3 Xrotation Yrotation Zrotation
										JOINT RFinger32
										{
											OFFSET -0.056029 0.031123 -0.004752
											CHANNELS 3 Xrotation Yrotation Zrotation
											End Site
											{
												OFFSET -0.046603 0.025394 -0.007870
											}
										}
									}
								}
								JOINT RFinger4
								{
									OFFSET -0.170713 0.198016 -0.014907
									CHANNELS 6 Xposition Yposition Zposition Xrotation Yrotation Zrotation
									JOINT RFinger41
									{
										OFFSET -0.053511 0.047730 -0.014552
										CHANNELS 3 Xrotation Yrotation Zrotation
										JOINT RFinger42
										{
											OFFSET -0.039238 0.035007 -0.010651
											CHANNELS 3 Xrotation Yrotation Zrotation
											End Site
											{
												OFFSET -0.039851 0.033002 -0.014190
											}
										}
									}
								}
								JOINT RFinger0
								{
									OFFSET -0.064880 -0.011091 -0.047555
									CHANNELS 6 Xposition Yposition Zposition Xrotation Yrotation Zrotation
									JOINT RFinger01
									{
										OFFSET -0.123691 -0.023663 -0.044536
										CHANNELS 3 Xrotation Yrotation Zrotation
										JOINT RFinger02
										{
											OFFSET -0.080350 -0.013375 -0.031084
											CHANNELS 3 Xrotation Yrotation Zrotation
											End Site
											{
												OFFSET -0.049768 -0.007057 -0.018760
											}
										}
									}
								}
							}
						}
					}
				}
			}
		}
	}
	JOINT RThigh
	{
		OFFSET -0.275484 0.144397 0.110005
		CHANNELS 6 Xposition Yposition Zposition Xrotation Yrotation Zrotation
		JOINT RShin
		{
			OFFSET 0.063897 0.102309 -1.203343
			CHANNELS 3 Xrotation Yrotation Zrotation
			JOINT RFoot
			{
				OFFSET 0.082503 0.091171 -1.180948
				CHANNELS 3 Xrotation Yrotation Zrotation
				JOINT RToe
				{
					OFFSET -0.105740 -0.236063 -0.156813
					CHANNELS 3 Xrotation Yrotation Zrotation
					End Site
					{
						OFFSET -0.022572 -0.048382 -0.005312
					}
				}
			}
		}
	}
	JOINT LThigh
	{
		OFFSET 0.280365 -0.116978 0.128668
		CHANNELS 6 Xposition Yposition Zposition Xrotation Yrotation Zrotation
		JOINT LShin
		{
			OFFSET 0.104142 0.083386 -1.202001
			CHANNELS 3 Xrotation Yrotation Zrotation
			JOINT LFoot
			{
				OFFSET 0.082502 0.091170 -1.180949
				CHANNELS 3 Xrotation Yrotation Zrotation
				JOINT LToe
				{
					OFFSET -0.105741 -0.236065 -0.156817
					CHANNELS 3 Xrotation Yrotation Zrotation
					End Site
					{
						OFFSET -0.022572 -0.048382 -0.005312
					}
				}
			}
		}
	}
}
MOTION
Frames: 5
Frame Time: 0.041667
-2.077835 -0.252778 2.096638 -5.104714 -14.984358 -125.304765 0.047024 0.119542 0.273792 0.000001 0.000000 -0.000001 -3.695902 0.166662 -4.374315 -12.230973 1.893227 -14.459558 -0.040743 -0.039617 0.658949 -9.333396 0.343000 -1.689084 -1.223482 0.104294 -0.089618 -0.072781 -0.252006 0.617078 1.513414 3.266642 0.315148 37.165259 -11.095205 -21.911307 10.288333 -5.286103 -147.093793 -0.000004 0.000012 -0.000003 0.209365 -0.182822 0.024067 0.000010 -0.000000 -0.000012 0.000009 0.000008 -0.000000 -0.000013 0.000003 0.000000 0.241306 -0.123551 0.034519 0.000005 0.000001 0.000014 0.000006 -0.000007 0.000001 0.000004 0.000001 -0.000001 0.257443 -0.056005 0.031813 0.000002 -0.000013 0.000002 -0.000003 -0.000001 -0.000000 0.000007 0.000006 -0.000013 0.261814 -0.005369 -0.000391 -0.000002 0.000005 -0.000001 -0.000002 -0.000015 -0.000007 0.000001 0.000001 -0.000004 0.035362 -0.058230 -0.044193 -0.000002 0.000011 -0.000004 0.000012 0.000002 0.000001 0.000004 0.000004 -0.000005 -0.181479 -0.200894 0.613430 -0.928517 -1.979506 -0.233588 8.110047 -12.360954 -8.264023 -0.007133 -0.007905 0.102269 -0.000003 0.000003 -0.000008 -0.275226 0.045044 0.007806 0.000008 0.000007 0.000007 -0.000000 0.000008 0.000002 -0.000008 0.000002 -0.000004 -0.250517 0.107713 0.018014 0.000001 -0.000000 -0.000004 -0.000003 -0.000003 -0.000009 0.000001 0.000001 -0.000002 -0.208661 0.163169 0.016174 -0.000000 -0.000002 -0.000005 -0.000004 -0.000003 0.000011 0.000000 0.000003 0.000010 -0.170713 0.198016 -0.014908 -0.000003 0.000004 0.000010 -0.000002 -0.000006 0.000008 0.000007 0.000004 0.000003 -0.064879 -0.011091 -0.047555 0.000002 0.000006 0.000004 -0.000000 -0.000008 0.000011 0.000001 0.000001 0.000003 -0.275479 0.144422 0.110052 -3.030362 15.685162 4.152128 13.662887 -6.272746 1.210665 -0.098370 0.569747 -0.787177 -14.060254 6.586514 0.339758 0.268831 0.004940 0.506916 -16.130620 3.946974 4.327783 0.109057 -0.051271 0.003699 -2.594861 1.220605 -0.056938 0.000005 0.000009 -0.000007 
-2.077835 -0.252778 2.096638 -5.104714 -14.984358 -125.304765 0.047024 0.119542 0.273792 0.000001 0.000000 -0.000001 -3.695902 0.166662 -4.374315 -12.230973 1.893227 -14.459558 -0.040743 -0.039617 0.658949 -9.333396 0.343000 -1.689084 -1.223482 0.104294 -0.089618 -0.072781 -0.252006 0.617078 1.513414 3.266642 0.315148 37.165259 -11.095205 -21.911307 10.288333 -5.286103 -147.093793 -0.000004 0.000012 -0.000003 0.209365 -0.182822 0.024067 0.000010 -0.000000 -0.000012 0.000009 0.000008 -0.000000 -0.000013 0.000003 0.000000 0.241306 -0.123551 0.034519 0.000005 0.000001 0.000014 0.000006 -0.000007 0.000001 0.000004 0.000001 -0.000001 0.257443 -0.056005 0.031813 0.000002 -0.000013 0.000002 -0.000003 -0.000001 -0.000000 0.000007 0.000006 -0.000013 0.261814 -0.005369 -0.000391 -0.000002 0.000005 -0.000001 -0.000002 -0.000015 -0.000007 0.000001 0.000001 -0.000004 0.035362 -0.058230 -0.044193 -0.000002 0.000011 -0.000004 0.000012 0.000002 0.000001 0.000004 0.000004 -0.000005 -0.181479 -0.200894 0.613430 -0.928517 -1.979506 -0.233588 8.110047 -12.360954 -8.264023 -0.007133 -0.007905 0.102269 -0.000003 0.000003 -0.000008 -0.275226 0.045044 0.007806 0.000008 0.000007 0.000007 -0.000000 0.000008 0.000002 -0.000008 0.000002 -0.000004 -0.250517 0.107713 0.018014 0.000001 -0.000000 -0.000004 -0.000003 -0.000003 -0.000009 0.000001 0.000001 -0.000002 -0.208661 0.163169 0.016174 -0.000000 -0.000002 -0.000005 -0.000004 -0.000003 0.000011 0.000000 0.000003 0.000010 -0.170713 0.198016 -0.014908 -0.000003 0.000004 0.000010 -0.000002 -0.000006 0.000008 0.000007 0.000004 0.000003 -0.064879 -0.011091 -0.047555 0.000002 0.000006 0.000004 -0.000000 -0.000008 0.000011 0.000001 0.000001 0.000003 -0.275479 0.144422 0.110052 -3.030362 15.685162 4.152128 13.662887 -6.272746 1.210665 -0.098370 0.569747 -0.787177 -14.060254 6.586514 0.339758 0.268831 0.004940 0.506916 -16.130620 3.946974 4.327783 0.109057 -0.051271 0.003699 -2.594861 1.220605 -0.056938 0.000005 0.000009 -0.000007 
-2.079788 -0.252637 2.096751 -5.103656 -14.940718 -125.286542 0.047023 0.119542 0.273792 0.000002 0.000002 -0.000001 -3.718547 0.095055 -4.408275 -12.303905 1.834352 -14.534393 -0.040743 -0.039617 0.658949 -9.209594 0.612225 -1.550793 -1.271318 0.112998 -0.092891 -0.072781 -0.252005 0.617078 1.475550 3.184459 0.308275 37.388510 -10.783908 -21.930269 10.287616 -5.289512 -147.128914 -0.000010 0.000014 -0.000004 0.209365 -0.182823 0.024066 0.000004 0.000002 -0.000014 0.000015 0.000012 -0.000005 -0.000005 -0.000001 0.000007 0.241307 -0.123551 0.034519 0.000003 0.000005 0.000012 0.000002 0.000002 0.000000 0.000007 -0.000001 -0.000005 0.257443 -0.056004 0.031813 0.000002 -0.000006 -0.000001 -0.000002 -0.000004 0.000001 0.000006 0.000006 -0.000008 0.261814 -0.005368 -0.000392 -0.000004 0.000007 0.000000 0.000003 -0.000014 -0.000013 0.000001 0.000000 -0.000002 0.035363 -0.058230 -0.044193 -0.000006 0.000010 -0.000004 0.000007 0.000005 0.000003 0.000008 0.000004 -0.000006 -0.181479 -0.200894 0.613430 -0.956899 -2.039644 -0.241204 7.158516 -11.454373 -8.470947 -0.008937 -0.009946 0.130208 -0.000002 0.000003 -0.000005 -0.275225 0.045043 0.007806 0.000007 0.000003 0.000002 0.000003 0.000006 0.000003 -0.000006 0.000001 -0.000003 -0.250517 0.107713 0.018014 0.000001 -0.000000 -0.000007 -0.000004 -0.000003 -0.000007 0.000000 0.000001 -0.000002 -0.208662 0.163169 0.016174 0.000001 -0.000003 -0.000005 -0.000003 -0.000003 0.000009 0.000001 0.000004 0.000006 -0.170713 0.198016 -0.014907 -0.000005 0.000004 0.000005 -0.000002 -0.000006 0.000010 0.000006 0.000003 -0.000003 -0.064880 -0.011091 -0.047555 0.000002 0.000007 0.000003 -0.000001 -0.000004 0.000009 0.000011 -0.000003 0.000003 -0.275461 0.144495 0.110193 -2.870362 15.662592 4.185779 13.502490 -6.201806 1.187942 0.075268 0.574688 -0.916034 -14.153506 6.629394 0.347396 0.269112 0.004292 0.504500 -16.096843 4.007940 4.365045 0.076102 -0.035775 0.002575 -2.413209 1.169566 -0.102408 0.000009 0.000007 -0.000003 
-2.081336 -0.252559 2.097018 -5.130309 -14.927879 -125.270136 0.047024 0.119542 0.273792 -0.000003 0.000003 -0.000001 -3.725292 0.063589 -4.421762 -12.346631 1.816534 -14.590182 -0.040742 -0.039617 0.658949 -9.184269 0.694400 -1.510592 -1.263407 0.132643 -0.089854 -0.072781 -0.252006 0.617078 1.444199 3.116410 0.302535 37.659850 -10.596314 -21.930370 10.287290 -5.291076 -147.145088 -0.000006 0.000011 -0.000004 0.209365 -0.182822 0.024066 -0.000002 0.000007 -0.000012 0.000012 0.000012 -0.000004 -0.000003 -0.000002 0.000006 0.241306 -0.123551 0.034519 -0.000004 0.000012 0.000011 0.000002 -0.000002 0.000005 0.000006 -0.000000 -0.000001 0.257443 -0.056004 0.031813 -0.000007 -0.000003 0.000001 0.000002 -0.000005 0.000001 0.000007 0.000005 -0.000013 0.261814 -0.005368 -0.000391 -0.000007 0.000012 -0.000001 0.000001 -0.000013 -0.000011 0.000003 0.000001 -0.000004 0.035363 -0.058230 -0.044193 -0.000009 0.000015 -0.000006 0.000010 0.000007 -0.000003 0.000008 0.000004 -0.000005 -0.181478 -0.200894 0.613431 -0.987661 -2.104800 -0.249484 6.205089 -10.655206 -8.656651 -0.004649 -0.005080 0.063591 -0.000002 0.000002 -0.000010 -0.275226 0.045044 0.007806 0.000006 0.000006 0.000007 0.000003 0.000007 0.000001 -0.000008 0.000002 -0.000004 -0.250517 0.107713 0.018013 -0.000000 0.000001 -0.000007 -0.000005 -0.000003 -0.000011 0.000001 0.000000 -0.000005 -0.208662 0.163169 0.016174 0.000001 -0.000002 -0.000002 -0.000004 -0.000004 0.000013 -0.000001 0.000002 0.000008 -0.170713 0.198016 -0.014908 -0.000005 0.000006 0.000008 -0.000000 -0.000005 0.000006 0.000007 0.000003 -0.000004 -0.064879 -0.011091 -0.047555 0.000001 0.000011 0.000002 0.000003 -0.000004 0.000007 0.000006 -0.000002 0.000005 -0.275431 0.144618 0.110432 -2.798079 15.661301 4.224733 13.441227 -6.174690 1.179316 0.147053 0.554121 -0.936769 -14.246818 6.672284 0.355100 0.269458 0.003629 0.502009 -15.990224 4.037476 4.464115 -0.133075 0.062590 -0.004401 -2.164257 1.098244 -0.164894 0.000007 0.000006 -0.000005 
-2.083297 -0.252891 2.097030 -5.163782 -14.913158 -125.220945 0.047023 0.119542 0.273792 0.000001 0.000002 -0.000008 -3.733436 0.020210 -4.438489 -12.394310 1.781481 -14.649494 -0.040743 -0.039617 0.658948 -9.160194 0.785525 -1.466910 -1.250499 0.161177 -0.085398 -0.072781 -0.252005 0.617077 1.409158 3.040395 0.296104 37.911095 -10.422127 -21.972949 10.287822 -5.288592 -147.119420 -0.000004 0.000013 -0.000004 0.209365 -0.182823 0.024066 0.000005 0.000003 -0.000015 0.000011 0.000010 -0.000003 -0.000003 -0.000001 0.000005 0.241307 -0.123551 0.034519 -0.000001 0.000004 0.000014 0.000002 -0.000001 -0.000002 0.000010 0.000001 -0.000003 0.257443 -0.056004 0.031813 0.000001 -0.000009 -0.000001 -0.000000 -0.000001 -0.000004 0.000004 0.000005 -0.000011 0.261814 -0.005368 -0.000392 -0.000002 0.000005 -0.000002 -0.000003 -0.000013 -0.000009 0.000005 0.000002 0.000000 0.035362 -0.058230 -0.044193 -0.000007 0.000006 -0.000001 0.000015 0.000008 -0.000003 0.000003 0.000004 -0.000005 -0.181479 -0.200894 0.613430 -1.022645 -2.178887 -0.258950 5.132763 -9.675983 -8.918227 -0.005187 -0.005667 0.071539 -0.000002 0.000003 -0.000006 -0.275225 0.045043 0.007806 0.000006 0.000006 0.000005 0.000005 0.000005 -0.000000 -0.000005 0.000000 -0.000002 -0.250517 0.107713 0.018014 0.000001 -0.000001 -0.000009 -0.000004 -0.000003 -0.000011 0.000001 0.000001 -0.000005 -0.208662 0.163168 0.016174 0.000002 -0.000003 -0.000004 -0.000002 -0.000003 0.000008 0.000001 0.000003 0.000008 -0.170713 0.198016 -0.014907 -0.000005 0.000005 0.000007 -0.000001 -0.000006 0.000006 0.000007 0.000003 0.000003 -0.064880 -0.011091 -0.047555 0.000005 0.000011 -0.000002 0.000003 -0.000008 0.000011 0.000007 0.000001 0.000007 -0.275390 0.144792 0.110770 -2.753156 15.699321 4.279167 13.481229 -6.192397 1.184948 0.027157 0.599918 -0.921644 -14.231765 6.665368 0.353847 0.269868 0.002953 0.499445 -15.870756 4.109371 4.583464 -0.372645 0.175282 -0.011941 -1.854760 1.030412 -0.272696 0.000006 0.000008 -0.000008 
